<?xml version="1.0" encoding="UTF-8"?>
<svg width="859px" height="476px" viewBox="0 0 859 476" version="1.1" xmlns="http://www.w3.org/2000/svg" xmlns:xlink="http://www.w3.org/1999/xlink">
    <!-- Generator: sketchtool 54.1 (76490) - https://sketchapp.com -->
    <title>64DB0631-5747-4113-B7EF-5E005785467C</title>
    <desc>Created with sketchtool.</desc>
    <g id="Page-1" stroke="none" stroke-width="1" fill="none" fill-rule="evenodd">
        <g id="Illustrations" transform="translate(-2343.000000, -238.000000)">
            <g id="teamwork_white_11" transform="translate(2343.000000, 238.000000)">
                <path d="M394,139.31 C394,139.31 400,126.1 405.5,121.08 C411,116.06 425.5,116.08 438.25,132.71 C438.25,132.71 437.75,134.31 432.5,137.06 C427.25,139.81 418.5,135.56 415.62,135.31 C412.74,135.06 402.25,145.31 402.25,145.31 L394,139.31 Z" id="Path" fill="#FBAD83"></path>
                <rect id="Rectangle" fill="#303D72" fill-rule="nonzero" x="109.5" y="51.76" width="1" height="326.2"></rect>
                <rect id="Rectangle" fill="#303D72" fill-rule="nonzero" x="123.08" y="81.23" width="1" height="326.2"></rect>
                <rect id="Rectangle" fill="#303D72" fill-rule="nonzero" x="118.27" y="148.43" width="1" height="269.81"></rect>
                <rect id="Rectangle" fill="#303D72" fill-rule="nonzero" x="93.7" y="184.25" width="1" height="269.81"></rect>
                <rect id="Rectangle" fill="#303D72" fill-rule="nonzero" x="131.33" y="233.1" width="1" height="225.17"></rect>
                <path d="M88.25,114.83 C104.56,106.57 123.05,110.29 129.56,123.14 C136.07,135.99 128.12,153.14 111.81,161.35 C95.5,169.56 60.92,200.5 54.42,187.66 C47.92,174.82 71.94,123.08 88.25,114.83 Z" id="Path" fill="#303D72" fill-rule="nonzero"></path>
                <path d="M69.17,279.2 C83.17,264.11 107.17,263.64 122.85,278.2 C138.53,292.76 139.85,316.72 125.85,331.81 C111.85,346.9 90.54,395.93 74.85,381.41 C59.16,366.89 55.17,294.29 69.17,279.2 Z" id="Path" fill="#303D72" fill-rule="nonzero"></path>
                <path d="M186.24,310.14 C162.24,303.51 137.24,318.32 130.33,343.21 C123.42,368.1 137.33,393.67 161.33,400.29 C185.33,406.91 238.45,443.83 245.33,418.93 C252.21,394.03 210.24,316.77 186.24,310.14 Z" id="Path" fill="#303D72" fill-rule="nonzero"></path>
                <path d="M56.63,188.44 C75.63,175.57 99.23,177.27 109.36,192.23 C119.49,207.19 112.36,229.74 93.36,242.6 C74.36,255.46 36.24,299.4 26.11,284.44 C15.98,269.48 37.65,201.3 56.63,188.44 Z" id="Path" fill="#00C99C" fill-rule="nonzero"></path>
                <path d="M56.63,188.43 C38.76,200.54 18.5,261.62 24.63,281.25 C41.12,231.4 51.83,216.65 68.91,198.54 C75.7349575,191.297593 83.802443,185.33673 92.73,180.94 C81.75,178.13 68.32,180.52 56.63,188.43 Z" id="Path" fill="#00B98F" fill-rule="nonzero"></path>
                <path d="M165.74,127.52 C143.95,120.37 121.74,128.52 116.08,145.64 C110.42,162.76 123.54,182.52 145.33,189.64 C167.12,196.76 215.84,228.57 221.48,211.41 C227.12,194.25 187.53,134.68 165.74,127.52 Z" id="Path" fill="#00C99C" fill-rule="nonzero"></path>
                <path d="M165.74,127.52 C186.25,134.25 222.5,187.42 222.01,207.98 C192.47,164.57 178.12,153.33 156.73,140.6 C148.18023,135.51278 138.788743,131.997323 129,130.22 C138.76,124.5 152.33,123.12 165.74,127.52 Z" id="Path" fill="#00B98F" fill-rule="nonzero"></path>
                <path d="M139.39,61.35 C125.39,67.26 117.72,81.01 122.39,92.08 C127.06,103.15 142.2,107.33 156.25,101.42 C170.3,95.51 208.58,90.24 203.93,79.17 C199.28,68.1 153.43,55.45 139.39,61.35 Z" id="Path" fill="#00C99C" fill-rule="nonzero"></path>
                <path d="M109.44,28.16 C118.21,34.16 121.44,44.67 116.73,51.58 C112.02,58.49 101,59.21 92.25,53.18 C83.5,47.15 58,38.12 62.78,31.21 C67.56,24.3 100.67,22.13 109.44,28.16 Z" id="Path" fill="#303D72" fill-rule="nonzero"></path>
                <path d="M139.39,61.35 C152.61,55.8 194,66.67 202.67,77.2 C168.94,68.29 156.84,68.91 140.57,71.84 C134.058508,73.0132059 127.809824,75.3433382 122.12,78.72 C124.54,71.59 130.74,65 139.39,61.35 Z" id="Path" fill="#00B98F" fill-rule="nonzero"></path>
                <path d="M183.27,241.78 C157.98,224.43 124.44,224.46 108.35,241.85 C92.26,259.24 99.73,287.4 125,304.75 C150.27,322.1 198.92,379.05 215,361.66 C231.08,344.27 208.55,259.13 183.27,241.78 Z" id="Path" fill="#00C99C" fill-rule="nonzero"></path>
                <path d="M183.27,241.78 C207.06,258.1 228.43,334.45 217.47,357.89 C200.1,295.59 186.72,276.66 164.76,253.06 C155.695944,243.424598 145.014632,235.450844 133.2,229.5 C149,227 167.71,231.1 183.27,241.78 Z" id="Path" fill="#00B98F" fill-rule="nonzero"></path>
                <path d="M172,382.66 L88.49,382.66 C82.92,382.66 78.39,403.38 78.39,428.96 L78.39,475.25 L182.11,475.25 L182.11,429 C182.11,403.38 177.59,382.66 172,382.66 Z" id="Path" fill="#FF9398" fill-rule="nonzero"></path>
                <path d="M110,382.66 L88.49,382.66 C82.92,382.66 78.39,403.38 78.39,428.96 L78.39,475.25 L99.9,475.25 L99.9,429 C99.9,403.38 104.42,382.66 110,382.66 Z" id="Path" fill="#F4828B" fill-rule="nonzero"></path>
                <path d="M175.62,391.92 L84.88,391.92 C80.5161775,391.887487 76.9835183,388.363727 76.94,384 L76.94,373.11 L183.57,373.11 L183.57,384 C183.526406,388.367592 179.987725,391.892919 175.62,391.92 L175.62,391.92 Z" id="Path" fill="#FFB0B2" fill-rule="nonzero"></path>
                <path d="M26.8,348.52 C37.52,328.25 59.15,318.65 75.13,327.1 C91.11,335.55 95.36,358.82 84.64,379.1 C73.92,399.38 60.91,456.1 44.93,447.63 C28.95,439.16 16.08,368.8 26.8,348.52 Z" id="Path" fill="#00C99C" fill-rule="nonzero"></path>
                <path d="M26.8,348.52 C16.71,367.6 27.52,431.04 42.14,445.52 C33.28,393.77 35.8,375.72 42.37,351.7 C44.9965207,342.110078 49.3179652,333.067557 55.13,325 C44.13,327.62 33.39,336 26.8,348.52 Z" id="Path" fill="#00B98F" fill-rule="nonzero"></path>
                <path d="M755.22,475.25 L318.56,475.25 L318.56,219.25 C318.56552,194.648001 338.508001,174.70552 363.11,174.7 L710.68,174.7 C735.28038,174.705522 755.220001,194.649619 755.22,219.25 L755.22,475.25 Z" id="Path" fill="#222747"></path>
                <path d="M719.22,475.25 L282.56,475.25 L282.56,219.25 C282.56552,194.648001 302.508001,174.70552 327.11,174.7 L674.68,174.7 C699.28038,174.705522 719.220001,194.649619 719.22,219.25 L719.22,475.25 Z" id="Path" fill="#FF9398"></path>
                <g id="Group" transform="translate(285.000000, 174.000000)" fill="#F4828B">
                    <polygon id="Path" points="220.38 0.71 180.76 122.86 373.39 132.39 383.95 75.37 373.39 0.71"></polygon>
                    <polygon id="Path" points="67.25 0.71 79.72 33.98 109.05 0.71 131.14 0.71 93.62 93.15 115.28 153.77 4.44 153.77 0.28 54.8 27.41 0.71 52.97 0.71"></polygon>
                </g>
                <path d="M273.9,284.4 L153.79,284.4 L153.79,475.25 L295.220002,475.25 L295.22,305.73 C295.222653,300.073852 292.977616,294.648457 288.979053,290.648019 C284.98049,286.64758 279.556149,284.399999 273.9,284.4 L273.9,284.4 Z" id="Path" fill="#303D72"></path>
                <path d="M175.12,475.25 L132.47,475.25 L132.47,305.73 C132.302625,298.001227 136.330143,290.786829 142.996953,286.873317 C149.663764,282.959805 157.926236,282.959805 164.593047,286.873317 C171.259857,290.786829 175.287375,298.001227 175.12,305.73 L175.12,475.25 Z" id="Path" fill="#FF9398"></path>
                <rect id="Rectangle" fill="#FF9398" fill-rule="nonzero" x="169.99" y="327.77" width="391.48" height="37.14"></rect>
                <polygon id="Path" fill="#FFB0B2" fill-rule="nonzero" points="556.47 475.25 175 475.25 175 364.91 290.04 364.91 556.47 364.91"></polygon>
                <g id="Group" transform="translate(253.000000, 364.000000)" fill="#F4828B" fill-rule="nonzero">
                    <polygon id="Path" points="17.98 0.91 0.89 111.63 62.87 111.63 81.89 0.92"></polygon>
                    <polygon id="Path" points="204.78 0.91 216.67 111.63 278.65 111.63 278.48 0.92"></polygon>
                </g>
                <path d="M533.12,140.76 L513.52,226.31 L450.52,264.87 L457.02,277.87 C457.02,277.87 514.57,270.33 531.02,261.71 C547.47,253.09 533.12,140.76 533.12,140.76 Z" id="Path" fill="#F89900"></path>
                <path d="M592.34,117.83 L635.58,131.7 L641.85,283.35 C641.85,283.35 604.61,312.71 536.85,297.7 L523.18,294 L532.18,146.31 C532.759454,136.746003 538.655323,128.315606 547.44,124.49 L561.78,118.22 L592.34,117.83 Z" id="Path" fill="#F9C200" fill-rule="nonzero"></path>
                <path d="M592.34,78.62 L592.34,117.83 C592.34,117.83 585.76,123.42 574.17,122.75 C563.46,122.13 561.75,118.25 561.75,118.25 L557.32,97.92 L592.32,78.62" id="Path" fill="#FBAD83" fill-rule="nonzero"></path>
                <path d="M561,114.82 C565.286124,113.064017 569.284084,110.674005 572.86,107.73 C578.240903,103.572446 582.264614,97.9093166 584.42,91.46 L560.93,95.93 L557.31,97.93 L561,114.83" id="Path" fill="#E68D5C" fill-rule="nonzero"></path>
                <rect id="Rectangle" fill="#1A2249" fill-rule="nonzero" x="531.48" y="55.86" width="19.9" height="1"></rect>
                <path d="M537.41,28.34 C537.41,28.34 534,36.69 534,44 C534,49.88 536.37,61 536.37,61 L549.9,26.44 L537.41,28.34 Z" id="Path" fill="#7A4029" fill-rule="nonzero"></path>
                <path d="M538.23,94.52 C548.94,117.05 575.51,103.74 586.88,92.39 C598.25,81.04 596.69,37.63 593.54,29.39 C590.39,21.15 564.09,14.5 550.23,19.8 C536.37,25.1 527.53,71.97 538.23,94.49" id="Path" fill="#FBAD83" fill-rule="nonzero"></path>
                <path d="M534,78.66 L534,78.66 C534.534408,84.1365089 535.945748,89.4914953 538.18,94.52 C542.44,103.52 549.18,106.77 556.53,106.77 L556.53,106.77 C549.21,106.77 542.45,103.48 538.19,94.52 C535.956714,89.4905262 534.542183,84.1362406 534,78.66" id="Path" fill="#D7C5BE" fill-rule="nonzero"></path>
                <path d="M595.58,61 L583.58,61 C583.58,61 575.64,81.83 568.82,83.82 C568.274054,83.9774343 567.708171,84.0549064 567.14,84.05 C561.46,84.05 553.9,77.15 544.36,76.75 C543.47,76.75 542.68,76.69 541.95,76.69 C537.87,76.69 536.04,77.3 534.02,78.69 C534.562183,84.1662406 535.976714,89.5205262 538.21,94.55 C542.47,103.55 549.21,106.8 556.55,106.8 C567.64,106.8 580,99.25 586.85,92.42 C592.36,86.92 594.85,73.92 595.56,61.03" id="Path" fill="#D48C68" fill-rule="nonzero"></path>
                <path d="M592,63.75 C588.108649,63.3978968 584.527095,61.4806835 582.076153,58.4377454 C579.625212,55.3948072 578.515016,51.487032 579,47.61 C579.61,42.72 581.05,41.17 579.78,36.54 C577.25,27.33 566.21,28.19 558.78,31.62 C551.35,35.05 543.19,35.05 536.78,30.2 C533.72,27.89 529.88,21.48 534.04,14.77 C538.2,8.06 553,0 553,0 C553,0 551.21,4 551.81,6.12 C552.41,8.24 591.63,-3.58 599.69,13.87 C607.75,31.32 597,64.21 597,64.21 L592,63.75 Z" id="Path" fill="#7A4029" fill-rule="nonzero"></path>
                <path d="M598.9,64 C598.9,69.8 591.18,75 586.45,75 C581.72,75 581.75,69.84 581.75,64 C581.75,58.16 585.59,53.48 590.32,53.48 C595.05,53.48 598.9,58.18 598.9,64 Z" id="Path" fill="#FBAD83" fill-rule="nonzero"></path>
                <path d="M595.36,63.46 C595.91,66.06 592.95,69.1 590.83,69.55 C588.71,70 593.26,66.45 592.71,63.85 C592.16,61.25 588.41,60.02 590.53,59.57 C592.65,59.12 594.81,60.86 595.36,63.46 Z" id="Path" fill="#E68D5C" fill-rule="nonzero"></path>
                <path d="M538.87,68.66 C534.52,68.66 530.98,64.09 530.98,58.47 C530.98,52.85 534.52,48.27 538.87,48.27 C543.22,48.27 546.75,52.84 546.75,58.47 C546.75,64.1 543.21,68.66 538.87,68.66 Z M538.87,49.27 C535.07,49.27 531.98,53.4 531.98,58.47 C531.98,63.54 535.07,67.66 538.87,67.66 C542.67,67.66 545.75,63.54 545.75,58.47 C545.75,53.4 542.66,49.27 538.87,49.27 L538.87,49.27 Z" id="Shape" fill="#1A2249" fill-rule="nonzero"></path>
                <path d="M557.32,68.66 C552.98,68.66 549.44,64.09 549.44,58.47 C549.44,52.85 552.98,48.27 557.32,48.27 C561.66,48.27 565.21,52.84 565.21,58.47 C565.21,64.1 561.67,68.66 557.32,68.66 Z M557.32,49.27 C553.53,49.27 550.44,53.4 550.44,58.47 C550.44,63.54 553.53,67.66 557.32,67.66 C561.11,67.66 564.21,63.54 564.21,58.47 C564.21,53.4 561.12,49.27 557.32,49.27 L557.32,49.27 Z" id="Shape" fill="#1A2249" fill-rule="nonzero"></path>
                <rect id="Rectangle" fill="#1A2249" fill-rule="nonzero" x="564.53" y="55.86" width="18.38" height="1"></rect>
                <rect id="Rectangle" fill="#1A2249" fill-rule="nonzero" x="546.25" y="55.86" width="3.69" height="1"></rect>
                <path d="M539,82.5 L555.67,82.5 C555.67,82.5 552.3,90.39 546.67,90.62 C541.04,90.85 539,82.5 539,82.5 Z" id="Path" fill="#FFFFFF" fill-rule="nonzero"></path>
                <path d="M615.67,224.13 L525.75,258.21 L523.57,294 L537.29,297.7 C605,312.7 642.29,283.35 642.29,283.35 L639.29,211.99 L623.71,179.8 L615.67,224.13 Z" id="Path" fill="#EDB607" fill-rule="nonzero"></path>
                <path d="M470.18,432.81 L470.18,475.25 L404.18,475.25 C405.720822,467.58991 411.363062,461.405369 418.85,459.17 L445.18,451.31 L445.68,432.81 L470.18,432.81 Z" id="Path" fill="#19192B" fill-rule="nonzero"></path>
                <path d="M509.52,432.81 L509.52,475.25 L443.52,475.25 C445.057034,467.591398 450.695714,461.406543 458.18,459.17 L484.52,451.31 L485.02,432.81 L509.52,432.81 Z" id="Path" fill="#303D72" fill-rule="nonzero"></path>
                <path d="M549.68,288.54 C549.68,288.54 479.21,280.54 450.19,281.09 C421.17,281.64 424,328.33 423.44,344.26 C422.88,360.19 444.34,440.71 444.34,440.71 C454.267576,442.233677 464.422227,441.05933 473.74,437.31 L468.09,327.72 L553.85,327.72 L549.68,288.54 Z" id="Path" fill="#0CBFD1" fill-rule="nonzero"></path>
                <path d="M600,288.54 C600,288.54 529.54,280.54 500.51,281.09 C471.48,281.64 474.33,328.33 473.76,344.26 C473.19,360.19 482.76,436.97 482.76,436.97 C482.76,436.97 498.13,443.23 513.5,436.97 L518.39,327.72 L604.15,327.72 L600,288.54 Z" id="Path" fill="#60D6E6" fill-rule="nonzero"></path>
                <path d="M530,327.72 L571.22,327.72 L599.44,322.67 L595.8,288.54 C595.8,288.54 545.03,282.77 511.93,281.37 L530,327.72 Z" id="Path" fill="#50CAD3" fill-rule="nonzero"></path>
                <path d="M697.9,284.4 L577.79,284.4 L577.79,475.25 L719.220002,475.25 L719.22,305.73 C719.222653,300.073852 716.977616,294.648457 712.979053,290.648019 C708.98049,286.64758 703.556149,284.399999 697.9,284.4 L697.9,284.4 Z" id="Path" fill="#303D72"></path>
                <path d="M599.12,475.25 L556.47,475.25 L556.47,305.73 C556.302625,298.001227 560.330143,290.786829 566.996953,286.873317 C573.663764,282.959805 581.926236,282.959805 588.593047,286.873317 C595.259857,290.786829 599.287375,298.001227 599.12,305.73 L599.12,475.25 Z" id="Path" fill="#FF9398"></path>
                <path d="M524.27,261.81 C524.27,261.81 508.77,260.74 497.77,265.02 C486.77,269.3 484.77,277.85 484.77,277.85 C484.77,277.85 506.22,277.92 513.27,277.85 C520.32,277.78 531,269.78 531,269.78 L524.27,261.81 Z" id="Path" fill="#FBAD83"></path>
                <path d="M507.75,277.85 L415.75,277.85 C414.007059,277.84451 412.59549,276.432941 412.59,274.69 L412.59,209.08 C412.59549,207.337059 414.007059,205.92549 415.75,205.92 L507.75,205.92 L507.75,277.85 Z" id="Path" fill="#A9C2DC" fill-rule="nonzero"></path>
                <path d="M510.17,277.85 L507.73,277.85 C507.106741,277.85 506.50901,277.602411 506.068299,277.161701 C505.627589,276.72099 505.38,276.123259 505.38,275.5 L505.38,208.27 C505.38,206.972131 506.432131,205.92 507.73,205.92 L510.17,205.92 L510.17,277.85 Z" id="Path" fill="#303D72" fill-rule="nonzero"></path>
                <path d="M465.76,241.89 C465.76,246.02 463.25,249.37 460.15,249.37 C457.05,249.37 454.54,246.02 454.54,241.89 C454.54,237.76 457.05,234.4 460.15,234.4 C463.25,234.4 465.76,237.75 465.76,241.89 Z" id="Path" fill="#FFFFFF" fill-rule="nonzero"></path>
                <rect id="Rectangle" fill="#303D72" fill-rule="nonzero" x="510.17" y="277.85" width="53.07" height="4.88"></rect>
                <rect id="Rectangle" fill="#A9C2DC" fill-rule="nonzero" x="415.64" y="277.85" width="94.53" height="4.88"></rect>
                <path d="M619.52,134 L627.85,234.43 L519.18,259.64 C519.18,259.64 515.85,269.06 519.18,277.85 C519.18,277.85 633.18,270.97 651.18,260.97 C669.18,250.97 648.35,145.31 643.85,137.97 C636.18,125.47 619.52,134 619.52,134 Z" id="Path" fill="#F9C200"></path>
                <path d="M322.42,132.71 L349.52,205.92 L394,136.31 C394,136.31 404.5,139.81 407,145.81 C407,145.81 376.5,217.5 360.5,234.4 C344.5,251.3 325.56,228.79 325.56,228.79 L322.42,132.71 Z" id="Path" fill="#0CBFD1"></path>
                <path d="M295.27,117.4 L268.93,116.4 C268.93,116.4 249.43,120.46 237.43,131.03 C225.43,141.6 232.93,293.64 232.93,293.64 C232.93,293.64 279.27,310.05 307.43,305.64 C328.18,302.4 334.93,298.14 334.93,298.14 C334.93,298.14 330.07,146.46 321.5,131 C312.93,115.54 295.27,117.4 295.27,117.4 Z" id="Path" fill="#60D6E6"></path>
                <path d="M307.43,305.64 C328.18,302.4 334.93,298.14 334.93,298.14 C334.93,298.14 334.28,277.69 333.02,251.04 L239.62,233.1 L252.49,174.71 L230.7,190.1 C230.13,236.71 232.93,293.64 232.93,293.64 C232.93,293.64 279.27,310.05 307.43,305.64 Z" id="Path" fill="#50CAD3"></path>
                <polygon id="Path" fill="#1A2249" fill-rule="nonzero" points="289.44 103.53 321.58 108.56 321.58 58.43"></polygon>
                <path d="M269,76.88 L269,116.1 C269,116.1 274.7,121.69 284.71,121.02 C292.07,120.53 295.34,117.1 295.34,117.1 L299.28,96.18 L269,76.88 Z" id="Path" fill="#FBAD83" fill-rule="nonzero"></path>
                <path d="M269,83.56 C269.282283,84.2509931 269.616575,84.9195779 270,85.56 C275.17,94.18 285.62,106.86 296.61,110.43 L299.29,96.19 L269,76.88 L269,83.56 Z" id="Path" fill="#E68D5C" fill-rule="nonzero"></path>
                <path d="M323.14,92.79 C312.43,115.32 285.46,97.19 274.08,85.79 C262.7,74.39 264.66,35.84 267.81,27.62 C270.96,19.4 297.27,12.72 311.14,18.03 C325.01,23.34 333.85,70.26 323.14,92.79 Z" id="Path" fill="#FBAD83" fill-rule="nonzero"></path>
                <path d="M283.92,112.73 L256.79,103.54 C256.79,103.54 252.79,41.13 261.49,25.49 C270.19,9.85 293.11,4.6 307.92,10.17 C329.48,18.28 329.16,46.9 329.48,49.43 C324.477572,48.5162304 319.354062,48.4823895 314.34,49.33 C308.780232,50.3426049 303.099216,50.5078095 297.49,49.82 L286.92,48.55 L283.92,112.73 Z" id="Path" fill="#1A2249" fill-rule="nonzero"></path>
                <path d="M270.28,71.37 C270.28,75.6 275.9,79.37 279.35,79.37 C282.8,79.37 282.78,75.61 282.78,71.37 C282.78,67.13 279.98,63.71 276.53,63.71 C273.08,63.71 270.28,67.14 270.28,71.37 Z" id="Path" fill="#FBAD83" fill-rule="nonzero"></path>
                <path d="M286.35,82.33 C286.35,85.6823684 283.632368,88.4 280.28,88.4 C276.927632,88.4 274.21,85.6823684 274.21,82.33 C274.21,78.9776316 276.927632,76.26 280.28,76.26 C283.632368,76.26 286.35,78.9776316 286.35,82.33 Z" id="Path" fill="#FFFFFF" fill-rule="nonzero"></path>
                <path d="M325.58,77.45 C320.35,77.45 316.1,72.38 316.1,66.13 L316.1,65.63 L316.6,65.63 L335.07,65.63 L335.07,66.13 C335.07,72.38 330.82,77.45 325.58,77.45 Z M317.11,66.59 C317.3,72.07 321.03,76.45 325.58,76.45 C330.13,76.45 333.87,72.07 334.06,66.59 L317.11,66.59 Z" id="Shape" fill="#1A2249" fill-rule="nonzero"></path>
                <path d="M303.43,77.45 C298.2,77.45 293.94,72.38 293.94,66.13 L293.94,65.63 L294.44,65.63 L312.91,65.63 L312.91,66.13 C312.91,72.38 308.66,77.45 303.43,77.45 Z M295,66.59 C295.2,72.07 298.92,76.45 303.48,76.45 C308.04,76.45 311.76,72.07 311.96,66.59 L295,66.59 Z" id="Shape" fill="#1A2249" fill-rule="nonzero"></path>
                <rect id="Rectangle" fill="#1A2249" fill-rule="nonzero" x="281.29" y="65.59" width="36.22" height="1"></rect>
                <path d="M292.22,286.57 C292.22,286.57 364.22,277.37 378.85,287.51 C393.48,297.65 394.02,317.56 385.18,333.64 C379.34,344.27 289.63,439.75 289.63,439.75 C289.63,439.75 280.95,434.94 279.56,427.46 L349.25,327.77 L302.51,327.38 L292.22,286.57 Z" id="Path" fill="#222747"></path>
                <polygon id="Path" fill="#FFFFFF" fill-rule="nonzero" points="337.51 289.62 297.47 289.62 319.83 244.69 359.87 244.69"></polygon>
                <path d="M290.14,284.4 C295.668565,286.156759 301.501109,286.749207 307.27,286.14 C317.14,285.14 318.89,280.56 319.52,276.93 C320.15,273.3 305.3,273.88 305.3,273.88 L306.84,270.78 C306.84,270.78 304.64,269.39 300.39,269.78 C296.14,270.17 296,273.68 292.63,274.31 C289.26,274.94 290.14,284.4 290.14,284.4 Z" id="Path" fill="#FBAD83" fill-rule="nonzero"></path>
                <path d="M235.62,133.94 C235.62,133.94 203.27,214.56 200.77,237.81 C198.27,261.06 290.77,285.68 290.77,285.68 C290.77,285.68 292.94,278.24 294.44,272.74 L227,234.4 C227,234.4 256.5,187.31 253,161.31 C249.5,135.31 235.62,133.94 235.62,133.94 Z" id="Path" fill="#60D6E6"></path>
                <path d="M282.56,427.46 L264,447.56 L286,475.25 L309,475.25 L309,474.19 C308.998909,470.8622 306.965001,467.872792 303.87,466.65 L292.61,462.18 L288.25,441.36 L290.12,435.93 L282.56,427.46 Z" id="Path" fill="#222747"></path>
                <path d="M302.52,446 L296.68,475.28 L349.35,475.28 C349.348048,470.799597 346.310772,466.889824 341.97,465.78 L315.52,459 L316.85,444.17 L302.52,446 Z" id="Path" fill="#303D72"></path>
                <path d="M233,293.35 C233,293.35 301.16,282.35 330.83,287.51 C360.5,292.67 351.42,323.31 349.12,336.31 C346.82,349.31 320.12,454.03 320.12,454.03 C320.12,454.03 312.12,455.31 305.45,452.31 L298.79,449.31 L317.46,327.31 L276.46,327.56 C255.782698,327.6445 237.774055,313.468806 233,293.35 L233,293.35 Z" id="Path" fill="#303D72"></path>
                <rect id="Rectangle" fill="#303D72" fill-rule="nonzero" x="0" y="474.75" width="858.57" height="1"></rect>
                <path d="M309.88,286.14 C277.17,286.24 233.02,293.35 233.02,293.35 C237.800804,313.498069 255.852853,327.681822 276.56,327.56 L284.72,327.51 L309.88,286.14 Z" id="Path" fill="#27345E"></path>
                <polygon id="Path" fill="#27345E" fill-rule="nonzero" points="719.23 360.41 599.4 412.13 599.4 475.25 719.23 475.25"></polygon>
            </g>
        </g>
    </g>
</svg>